<?xml version="1.0" encoding="utf-8"?>
<!-- Generator: Adobe Illustrator 22.0.0, SVG Export Plug-In . SVG Version: 6.00 Build 0)  -->
<svg version="1.0" id="Layer_1" xmlns="http://www.w3.org/2000/svg" xmlns:xlink="http://www.w3.org/1999/xlink" x="0px" y="0px"
	 viewBox="0 0 3000 2000" style="enable-background:new 0 0 3000 2000;" xml:space="preserve">
<style type="text/css">
	.st0{fill:#333333;}
	.st1{fill:none;}
</style>
<g>
	<g>
		<path class="st0" d="M1412,763v32h-95v63h-59.3v-90.2c0-2.7,2.2-4.8,4.8-4.8H1412z"/>
		<circle class="st0" cx="1422.5" cy="924" r="28.5"/>
		<path class="st0" d="M1742.1,767.8v172.3l-162.7,2.9l-99,52l-100.7,1.9l-121.9-105.6V876h77.3v-63h95v-50h198.3l-105.9,157h-54.7
			c-2-23.2-21.6-41.5-45.3-41.5c-25.1,0-45.5,20.4-45.5,45.5s20.4,45.5,45.5,45.5c20.6,0,38-13.7,43.6-32.5h65.4l117.3-174h88.4
			C1739.9,763,1742.1,765.2,1742.1,767.8z"/>
		<path class="st0" d="M1742.1,1089v58H1655c-16,0-29-13-29-29s13-29,29-29H1742.1z"/>
		<path class="st0" d="M1450,1149.5c0,15.7-12.8,28.5-28.5,28.5s-28.5-12.8-28.5-28.5c0-6.8,2.4-13,6.4-17.9
			c3.6-4.4,8.5-7.8,14.2-9.4c2.5-0.7,5.2-1.1,8-1.1C1437.2,1121,1450,1133.8,1450,1149.5z"/>
		<circle class="st0" cx="1545.5" cy="1049.5" r="28.5"/>
		<path class="st0" d="M1608,1118c0,25.9,21.1,47,47,47h87.1v77.5c0,2.7-2.2,4.8-4.8,4.8H1642v-37.8l-88.7-48.3l0.8-67.2
			c21-4,36.9-22.5,36.9-44.7c0-25.1-20.4-45.5-45.5-45.5s-45.5,20.4-45.5,45.5c0,22,15.7,40.3,36.4,44.6l-1,77.5l88.8,48.4v27.4
			h-361.7c-2.7,0-4.8-2.2-4.8-4.8V1059h91.8l40,58.2c-8.3,8.3-13.5,19.7-13.5,32.3c0,25.1,20.4,45.5,45.5,45.5s45.5-20.4,45.5-45.5
			c0-25.1-20.4-45.5-45.5-45.5c-6.3,0-12.4,1.3-17.9,3.7l-45.1-65.7h-100.8V913.8l115.7,100.2l111.3-2.1l99-52l158.4-2.8V1071H1655
			C1629.1,1071,1608,1092.1,1608,1118z"/>
	</g>
	<g>
		<path class="st0" d="M1802.6,688.5h-605.5c-7.9,0-14.3,6.4-14.3,14.3v605.5c0,7.9,6.4,14.3,14.3,14.3h605.5
			c7.9,0,14.3-6.4,14.3-14.3V702.8C1817,694.9,1810.5,688.5,1802.6,688.5z M1760.1,1251.5c0,7.6-6.2,13.8-13.8,13.8h-492.7
			c-7.6,0-13.8-6.2-13.8-13.8V758.8c0-7.6,6.2-13.8,13.8-13.8h492.7c7.6,0,13.8,6.2,13.8,13.8V1251.5z"/>
	</g>
	<g>
		<rect x="1262.4" y="479.4" class="st0" width="24" height="182.1"/>
	</g>
	<g>
		<rect x="1352.6" y="479.4" class="st0" width="24" height="182.1"/>
	</g>
	<g>
		<rect x="1442.9" y="479.4" class="st0" width="24" height="182.1"/>
	</g>
	<g>
		<rect x="1533.2" y="479.4" class="st0" width="24" height="182.1"/>
	</g>
	<g>
		<rect x="1623.4" y="479.4" class="st0" width="24" height="182.1"/>
	</g>
	<g>
		<rect x="1713.7" y="479.4" class="st0" width="24" height="182.1"/>
	</g>
	<g>
		<rect x="1262.4" y="1348.8" class="st0" width="24" height="182.1"/>
	</g>
	<g>
		<rect x="1352.6" y="1348.8" class="st0" width="24" height="182.1"/>
	</g>
	<g>
		<rect x="1442.9" y="1348.8" class="st0" width="24" height="182.1"/>
	</g>
	<g>
		<rect x="1533.2" y="1348.8" class="st0" width="24" height="182.1"/>
	</g>
	<g>
		<rect x="1623.4" y="1348.8" class="st0" width="24" height="182.1"/>
	</g>
	<g>
		<rect x="1713.7" y="1348.8" class="st0" width="24" height="182.1"/>
	</g>
	<g>
		<rect x="1849.3" y="1219.2" class="st0" width="182.1" height="24"/>
	</g>
	<g>
		<rect x="1849.3" y="1128.9" class="st0" width="182.1" height="24"/>
	</g>
	<g>
		<rect x="1849.3" y="1038.7" class="st0" width="182.1" height="24"/>
	</g>
	<g>
		<rect x="1849.3" y="948.4" class="st0" width="182.1" height="24"/>
	</g>
	<g>
		<rect x="1849.3" y="858.2" class="st0" width="182.1" height="24"/>
	</g>
	<g>
		<rect x="1849.3" y="767.9" class="st0" width="182.1" height="24"/>
	</g>
	<g>
		<rect x="968.3" y="1219.2" class="st0" width="182.1" height="24"/>
	</g>
	<g>
		<rect x="968.3" y="1128.9" class="st0" width="182.1" height="24"/>
	</g>
	<g>
		<rect x="968.3" y="1038.7" class="st0" width="182.1" height="24"/>
	</g>
	<g>
		<rect x="968.3" y="948.4" class="st0" width="182.1" height="24"/>
	</g>
	<g>
		<rect x="968.3" y="858.2" class="st0" width="182.1" height="24"/>
	</g>
	<g>
		<rect x="968.3" y="767.9" class="st0" width="182.1" height="24"/>
	</g>
</g>
<g>
	<line class="st1" x1="1742.1" y1="957.2" x2="1742.1" y2="940.2"/>
</g>
</svg>
