<svg width="127" height="126" viewBox="0 0 127 126" fill="none" xmlns="http://www.w3.org/2000/svg">
<path d="M53.0052 33.8794V37.7022H41.6564V45.2283H34.5723V34.4528C34.5723 34.1303 34.8351 33.8794 35.1457 33.8794H53.0052Z" fill="#A8A8A8"/>
<path d="M54.2596 56.5174C56.14 56.5174 57.6643 54.9931 57.6643 53.1128C57.6643 51.2324 56.14 49.7081 54.2596 49.7081C52.3793 49.7081 50.8549 51.2324 50.8549 53.1128C50.8549 54.9931 52.3793 56.5174 54.2596 56.5174Z" fill="#72F5D9"/>
<path d="M92.4398 34.4528V55.0361L73.0033 55.3825L61.1766 61.5946L49.1468 61.8215L34.5844 49.2064V47.3786H43.8188V39.8525H55.1676V33.8794H78.8569L66.2059 52.6349H59.6714C59.4324 49.8634 57.091 47.6772 54.2597 47.6772C51.2612 47.6772 48.8242 50.1143 48.8242 53.1128C48.8242 56.1113 51.2612 58.5483 54.2597 58.5483C56.7206 58.5483 58.7993 56.9117 59.4683 54.6658H67.2811L81.294 33.8794H91.8544C92.1769 33.8794 92.4398 34.1422 92.4398 34.4528Z" fill="#A8A8A8"/>
<path d="M92.4397 72.824V79.7528H82.0345C80.1231 79.7528 78.5701 78.1998 78.5701 76.2884C78.5701 74.377 80.1231 72.824 82.0345 72.824H92.4397Z" fill="#A8A8A8"/>
<path d="M57.5448 80.0515C57.5448 81.927 56.0157 83.4561 54.1402 83.4561C52.2646 83.4561 50.7355 81.927 50.7355 80.0515C50.7355 79.2391 51.0222 78.4984 51.5001 77.9131C51.9301 77.3874 52.5155 76.9813 53.1964 76.7901C53.4951 76.7065 53.8176 76.6587 54.1521 76.6587C56.0157 76.6468 57.5448 78.1759 57.5448 80.0515Z" fill="#72F5D9"/>
<path d="M68.9534 71.5099C70.8338 71.5099 72.3581 69.9856 72.3581 68.1053C72.3581 66.2249 70.8338 64.7006 68.9534 64.7006C67.0731 64.7006 65.5488 66.2249 65.5488 68.1053C65.5488 69.9856 67.0731 71.5099 68.9534 71.5099Z" fill="#72F5D9"/>
<path d="M76.4198 76.2884C76.4198 79.3825 78.9404 81.9031 82.0345 81.9031H92.4396V91.1614C92.4396 91.4839 92.1768 91.7348 91.8662 91.7348H80.4815V87.2192L69.8852 81.4491L69.9808 73.4213C72.4895 72.9435 74.3889 70.7334 74.3889 68.0814C74.3889 65.0829 71.9519 62.6458 68.9534 62.6458C65.9549 62.6458 63.5179 65.0829 63.5179 68.0814C63.5179 70.7095 65.3935 72.8957 67.8663 73.4094L67.7469 82.6677L78.3551 88.4496V91.7229H35.1457C34.8231 91.7229 34.5723 91.4601 34.5723 91.1495V69.2401H45.5389L50.3174 76.1928C49.3258 77.1843 48.7046 78.5462 48.7046 80.0514C48.7046 83.0499 51.1416 85.487 54.1401 85.487C57.1386 85.487 59.5757 83.0499 59.5757 80.0514C59.5757 77.0529 57.1386 74.6159 54.1401 74.6159C53.3875 74.6159 52.6588 74.7712 52.0018 75.0579L46.614 67.2093H34.5723V51.8943L48.394 63.8643L61.6901 63.6135L73.5169 57.4015L92.4396 57.067V70.6737H82.0345C78.9404 70.6737 76.4198 73.1943 76.4198 76.2884Z" fill="#A8A8A8"/>
<path d="M99.6671 24.9795H27.3329C26.3892 24.9795 25.6246 25.744 25.6246 26.6878V99.022C25.6246 99.9658 26.3892 100.73 27.3329 100.73H99.6671C100.611 100.73 101.375 99.9658 101.375 99.022V26.6878C101.387 25.744 100.611 24.9795 99.6671 24.9795ZM94.59 92.2366C94.59 93.1445 93.8493 93.8851 92.9414 93.8851H34.0825C33.1746 93.8851 32.4339 93.1445 32.4339 92.2366V33.3777C32.4339 32.4698 33.1746 31.7291 34.0825 31.7291H92.9414C93.8493 31.7291 94.59 32.4698 94.59 33.3777V92.2366Z" fill="#A8A8A8"/>
<path d="M38.0008 0H35.1338V21.754H38.0008V0Z" fill="#A8A8A8"/>
<path d="M48.7763 0H45.9092V21.754H48.7763V0Z" fill="#A8A8A8"/>
<path d="M59.5637 0H56.6966V21.754H59.5637V0Z" fill="#A8A8A8"/>
<path d="M70.3512 0H67.4841V21.754H70.3512V0Z" fill="#A8A8A8"/>
<path d="M81.1266 0H78.2595V21.754H81.1266V0Z" fill="#A8A8A8"/>
<path d="M91.914 0H89.0469V21.754H91.914V0Z" fill="#A8A8A8"/>
<path d="M38.0008 103.86H35.1338V125.614H38.0008V103.86Z" fill="#A8A8A8"/>
<path d="M48.7763 103.86H45.9092V125.614H48.7763V103.86Z" fill="#A8A8A8"/>
<path d="M59.5637 103.86H56.6966V125.614H59.5637V103.86Z" fill="#A8A8A8"/>
<path d="M70.3512 103.86H67.4841V125.614H70.3512V103.86Z" fill="#A8A8A8"/>
<path d="M81.1266 103.86H78.2595V125.614H81.1266V103.86Z" fill="#A8A8A8"/>
<path d="M91.914 103.86H89.0469V125.614H91.914V103.86Z" fill="#A8A8A8"/>
<path d="M127 88.3779H105.246V91.245H127V88.3779Z" fill="#A8A8A8"/>
<path d="M127 77.5905H105.246V80.4576H127V77.5905Z" fill="#A8A8A8"/>
<path d="M127 66.8151H105.246V69.6822H127V66.8151Z" fill="#A8A8A8"/>
<path d="M127 56.0276H105.246V58.8947H127V56.0276Z" fill="#A8A8A8"/>
<path d="M127 45.2522H105.246V48.1193H127V45.2522Z" fill="#A8A8A8"/>
<path d="M127 34.4648H105.246V37.3319H127V34.4648Z" fill="#A8A8A8"/>
<path d="M21.754 88.3779H0V91.245H21.754V88.3779Z" fill="#A8A8A8"/>
<path d="M21.754 77.5905H0V80.4576H21.754V77.5905Z" fill="#A8A8A8"/>
<path d="M21.754 66.8151H0V69.6822H21.754V66.8151Z" fill="#A8A8A8"/>
<path d="M21.754 56.0276H0V58.8947H21.754V56.0276Z" fill="#A8A8A8"/>
<path d="M21.754 45.2522H0V48.1193H21.754V45.2522Z" fill="#A8A8A8"/>
<path d="M21.754 34.4648H0V37.3319H21.754V34.4648Z" fill="#A8A8A8"/>
</svg>
