<svg width="152" height="152" viewBox="0 0 152 152" fill="none" xmlns="http://www.w3.org/2000/svg">
<path d="M80.136 151.592C75.8025 151.59 71.4763 151.237 67.2 150.536C46.2831 147.104 27.5837 135.509 15.2089 118.3C2.83402 101.091 -2.20449 79.6735 1.19997 58.752C3.10505 46.8417 7.69644 35.5214 14.6261 25.649C21.5558 15.7767 30.642 7.61139 41.196 1.77201C42.9765 0.777131 45.0054 0.314586 47.0412 0.439389C49.0771 0.564192 51.0342 1.27109 52.68 2.47601C54.3621 3.62698 55.6735 5.242 56.4547 7.12459C57.2359 9.00719 57.4531 11.0762 57.08 13.08L51.36 12.64L56.772 13.608C53.7186 29.8043 56.5719 46.5586 64.8142 60.8313C73.0565 75.1039 86.1417 85.9494 101.696 91.4C113.674 95.5571 126.561 96.3634 138.964 93.732C140.927 93.3468 142.958 93.5175 144.829 94.2249C146.699 94.9323 148.335 96.1481 149.552 97.7354C150.769 99.3228 151.518 101.218 151.715 103.209C151.912 105.199 151.55 107.205 150.668 109C143.882 121.83 133.732 132.573 121.308 140.076C108.883 147.579 94.6505 151.56 80.136 151.592V151.592ZM45.948 11.716C37.532 16.488 30.2146 22.9777 24.4714 30.7633C18.7281 38.5488 14.6877 47.4559 12.6127 56.9055C10.5377 66.355 10.4746 76.1355 12.4275 85.611C14.3804 95.0865 18.3057 104.045 23.948 111.904C30.7486 121.41 39.8557 129.03 50.4125 134.047C60.9694 139.064 72.629 141.313 84.2944 140.583C95.9599 139.852 107.248 136.166 117.096 129.872C126.945 123.577 135.03 114.88 140.592 104.6C126.439 107.445 111.785 106.473 98.132 101.784C80.1174 95.4676 64.9557 82.917 55.3856 66.3993C45.8155 49.8816 42.4681 30.486 45.948 11.716V11.716Z" fill="white"/>
</svg>
