<svg width="163" height="163" viewBox="0 0 163 163" fill="none" xmlns="http://www.w3.org/2000/svg">
<path d="M81.5 127.274C106.78 127.274 127.274 106.78 127.274 81.5C127.274 56.2198 106.78 35.7261 81.5 35.7261C56.2197 35.7261 35.726 56.2198 35.726 81.5C35.726 106.78 56.2197 127.274 81.5 127.274Z" fill="white"/>
<path d="M78.2437 30.3299H84.7563C86.8117 30.3299 88.4778 28.6638 88.4778 26.6084V3.72146C88.4778 1.6661 86.8117 0 84.7563 0H78.2437C76.1884 0 74.5223 1.6661 74.5223 3.72146V26.6084C74.5223 28.6638 76.1884 30.3299 78.2437 30.3299Z" fill="white"/>
<path d="M132.67 78.2437V84.7562C132.67 86.8116 134.336 88.4777 136.392 88.4777H159.279C161.334 88.4777 163 86.8116 163 84.7562V78.2437C163 76.1883 161.334 74.5222 159.279 74.5222H136.392C134.336 74.5222 132.67 76.1883 132.67 78.2437Z" fill="white"/>
<path d="M84.7563 163C86.8117 163 88.4778 161.334 88.4778 159.279V136.392C88.4778 134.336 86.8117 132.67 84.7563 132.67H78.2437C76.1884 132.67 74.5223 134.336 74.5223 136.392V159.279C74.5223 161.334 76.1884 163 78.2437 163H84.7563Z" fill="white"/>
<path d="M3.72146 88.4777H26.6084C28.6638 88.4777 30.3299 86.8116 30.3299 84.7562V78.2437C30.3299 76.1883 28.6638 74.5222 26.6084 74.5222H3.72146C1.6661 74.5222 0 76.1883 0 78.2437V84.7562C0 86.8116 1.6661 88.4777 3.72146 88.4777Z" fill="white"/>
<path d="M119.985 47.6199C121.439 49.0731 123.795 49.0733 125.248 47.6199L141.432 31.4363C142.885 29.9827 142.885 27.6267 141.432 26.1735L136.827 21.5683C135.373 20.1149 133.017 20.1149 131.564 21.5683L115.38 37.7519C113.927 39.2051 113.927 41.5615 115.38 43.0147L119.985 47.6199Z" fill="white"/>
<path d="M136.827 141.432L141.432 136.827C142.885 135.373 142.885 133.017 141.432 131.564L125.248 115.38C123.794 113.927 121.438 113.927 119.985 115.38L115.38 119.985C113.926 121.439 113.926 123.795 115.38 125.248L131.564 141.432C133.017 142.885 135.373 142.885 136.827 141.432Z" fill="white"/>
<path d="M31.4363 141.432L47.62 125.248C49.0736 123.795 49.0736 121.438 47.62 119.985L43.0149 115.38C41.5615 113.927 39.2052 113.927 37.752 115.38L21.5683 131.564C20.1149 133.017 20.1149 135.373 21.5683 136.827L26.1734 141.432C27.6266 142.885 29.9829 142.885 31.4363 141.432Z" fill="white"/>
<path d="M37.7518 47.6199C39.2052 49.0733 41.5615 49.0731 43.0147 47.6199L47.6198 43.0147C49.0734 41.5615 49.0734 39.2051 47.6198 37.7519L31.4361 21.5683C29.9827 20.1149 27.6264 20.1149 26.1732 21.5683L21.5681 26.1735C20.1147 27.6267 20.1147 29.9831 21.5681 31.4363L37.7518 47.6199Z" fill="white"/>
</svg>
